# MagicaVoxel @ Ephtracy

# group
o 

# material
mtllib ForkRight.mtl
usemtl palette

# normals
vn -1 0 0
vn 1 0 0
vn 0 0 1
vn 0 0 -1
vn 0 -1 0
vn 0 1 0

# texcoords
vt 0.958984 0.5
vt 0.962891 0.5
vt 0.970703 0.5
vt 0.974609 0.5
vt 0.994141 0.5

# verts
v -2.5 0 2.5
v -2.5 0 -2.5
v -2.5 0.1 2.5
v -2.5 0.1 1.7
v -2.5 0.1 1.6
v -2.5 0.1 -1.6
v -2.5 0.1 -1.7
v -2.5 0.1 -2.4
v -2.5 0.1 -2.5
v -2.5 0.2 2.5
v -2.5 0.2 1.7
v -2.5 0.2 1.6
v -2.5 0.2 -1.6
v -2.5 0.2 -1.7
v -2.5 0.2 -2.4
v -2.5 0.2 -2.5
v -2.1 0.1 1.7
v -2.1 0.1 1.6
v -2.1 0.2 1.7
v -2.1 0.2 1.6
v -1.3 0.1 1.7
v -1.3 0.1 1.6
v -1.3 0.2 1.7
v -1.3 0.2 1.6
v -0.4 0.1 1.7
v -0.4 0.1 1.6
v -0.4 0.2 1.7
v -0.4 0.2 1.6
v 0.4 0.1 1.7
v 0.4 0.1 1.6
v 0.4 0.2 1.7
v 0.4 0.2 1.6
v 1.1 0.1 1.7
v 1.1 0.1 1.6
v 1.1 0.2 1.7
v 1.1 0.2 1.6
v 1.6 0.1 -2.1
v 1.6 0.1 -2.5
v 1.6 0.2 -2.1
v 1.6 0.2 -2.5
v 1.7 0.1 -1.9
v 1.7 0.1 -2.1
v 1.7 0.2 -1.9
v 1.7 0.2 -2.1
v 1.8 0.1 -1.8
v 1.8 0.1 -1.9
v 1.8 0.2 -1.8
v 1.8 0.2 -1.9
v 1.9 0.1 -1.7
v 1.9 0.1 -1.8
v 1.9 0.2 -1.7
v 1.9 0.2 -1.8
v 2.1 0.1 1.7
v 2.1 0.1 1.6
v 2.1 0.1 -1.6
v 2.1 0.1 -1.7
v 2.1 0.2 1.7
v 2.1 0.2 1.6
v 2.1 0.2 -1.6
v 2.1 0.2 -1.7
v -2.2 0.1 1.7
v -2.2 0.1 1.6
v -2.2 0.2 1.7
v -2.2 0.2 1.6
v -2.1 0.1 -1.6
v -2.1 0.1 -1.7
v -2.1 0.2 -1.6
v -2.1 0.2 -1.7
v -1.9 0.1 -1.7
v -1.9 0.1 -1.8
v -1.9 0.2 -1.7
v -1.9 0.2 -1.8
v -1.8 0.1 -1.8
v -1.8 0.1 -1.9
v -1.8 0.2 -1.8
v -1.8 0.2 -1.9
v -1.7 0.1 -1.9
v -1.7 0.1 -2.1
v -1.7 0.2 -1.9
v -1.7 0.2 -2.1
v -1.6 0.1 -2.1
v -1.6 0.1 -2.5
v -1.6 0.2 -2.1
v -1.6 0.2 -2.5
v -1.4 0.1 1.7
v -1.4 0.1 1.6
v -1.4 0.2 1.7
v -1.4 0.2 1.6
v -0.5 0.1 1.7
v -0.5 0.1 1.6
v -0.5 0.2 1.7
v -0.5 0.2 1.6
v 0.3 0.1 1.7
v 0.3 0.1 1.6
v 0.3 0.2 1.7
v 0.3 0.2 1.6
v 1 0.1 1.7
v 1 0.1 1.6
v 1 0.2 1.7
v 1 0.2 1.6
v 2 0.1 1.7
v 2 0.1 1.6
v 2 0.2 1.7
v 2 0.2 1.6
v 2.5 0 2.5
v 2.5 0 -2.5
v 2.5 0.1 2.5
v 2.5 0.1 1.7
v 2.5 0.1 1.6
v 2.5 0.1 -1.6
v 2.5 0.1 -1.7
v 2.5 0.1 -2.4
v 2.5 0.1 -2.5
v 2.5 0.2 2.5
v 2.5 0.2 1.7
v 2.5 0.2 1.6
v 2.5 0.2 -1.6
v 2.5 0.2 -1.7
v 2.5 0.2 -2.4
v 2.5 0.2 -2.5
v -2.5 0 2.5
v -2.5 0.1 2.5
v -2.5 0.2 2.5
v -1.8 0.1 2.5
v -1.8 0.2 2.5
v -1.7 0.1 2.5
v -1.7 0.2 2.5
v -0.9 0.1 2.5
v -0.9 0.2 2.5
v -0.8 0.1 2.5
v -0.8 0.2 2.5
v -0.0999999 0.1 2.5
v -0.0999999 0.2 2.5
v 2.38419e-07 0.1 2.5
v 2.38419e-07 0.2 2.5
v 0.7 0.1 2.5
v 0.7 0.2 2.5
v 0.8 0.1 2.5
v 0.8 0.2 2.5
v 1.4 0.1 2.5
v 1.4 0.2 2.5
v 1.5 0.1 2.5
v 1.5 0.2 2.5
v 2.5 0 2.5
v 2.5 0.1 2.5
v 2.5 0.2 2.5
v -2.5 0.1 -1.6
v -2.5 0.2 -1.6
v -2.1 0.1 -1.6
v -2.1 0.2 -1.6
v 2.1 0.1 -1.6
v 2.1 0.2 -1.6
v 2.5 0.1 -1.6
v 2.5 0.2 -1.6
v -2.1 0.1 -1.7
v -2.1 0.2 -1.7
v -1.9 0.1 -1.7
v -1.9 0.2 -1.7
v 1.9 0.1 -1.7
v 1.9 0.2 -1.7
v 2.1 0.1 -1.7
v 2.1 0.2 -1.7
v -1.9 0.1 -1.8
v -1.9 0.2 -1.8
v -1.8 0.1 -1.8
v -1.8 0.2 -1.8
v 1.8 0.1 -1.8
v 1.8 0.2 -1.8
v 1.9 0.1 -1.8
v 1.9 0.2 -1.8
v -1.8 0.1 -1.9
v -1.8 0.2 -1.9
v -1.7 0.1 -1.9
v -1.7 0.2 -1.9
v 1.7 0.1 -1.9
v 1.7 0.2 -1.9
v 1.8 0.1 -1.9
v 1.8 0.2 -1.9
v -1.7 0.1 -2.1
v -1.7 0.2 -2.1
v -1.6 0.1 -2.1
v -1.6 0.2 -2.1
v 1.6 0.1 -2.1
v 1.6 0.2 -2.1
v 1.7 0.1 -2.1
v 1.7 0.2 -2.1
v -2.2 0.1 1.7
v -2.2 0.2 1.7
v -2.1 0.1 1.7
v -2.1 0.2 1.7
v -1.4 0.1 1.7
v -1.4 0.2 1.7
v -1.3 0.1 1.7
v -1.3 0.2 1.7
v -0.5 0.1 1.7
v -0.5 0.2 1.7
v -0.4 0.1 1.7
v -0.4 0.2 1.7
v 0.3 0.1 1.7
v 0.3 0.2 1.7
v 0.4 0.1 1.7
v 0.4 0.2 1.7
v 1 0.1 1.7
v 1 0.2 1.7
v 1.1 0.1 1.7
v 1.1 0.2 1.7
v 2 0.1 1.7
v 2 0.2 1.7
v 2.1 0.1 1.7
v 2.1 0.2 1.7
v -2.5 0.1 1.6
v -2.5 0.2 1.6
v -2.2 0.1 1.6
v -2.2 0.2 1.6
v -2.1 0.1 1.6
v -2.1 0.2 1.6
v -1.8 0.1 1.6
v -1.8 0.2 1.6
v -1.7 0.1 1.6
v -1.7 0.2 1.6
v -1.4 0.1 1.6
v -1.4 0.2 1.6
v -1.3 0.1 1.6
v -1.3 0.2 1.6
v -0.9 0.1 1.6
v -0.9 0.2 1.6
v -0.8 0.1 1.6
v -0.8 0.2 1.6
v -0.5 0.1 1.6
v -0.5 0.2 1.6
v -0.4 0.1 1.6
v -0.4 0.2 1.6
v -0.0999999 0.1 1.6
v -0.0999999 0.2 1.6
v 2.38419e-07 0.1 1.6
v 2.38419e-07 0.2 1.6
v 0.3 0.1 1.6
v 0.3 0.2 1.6
v 0.4 0.1 1.6
v 0.4 0.2 1.6
v 0.7 0.1 1.6
v 0.7 0.2 1.6
v 0.8 0.1 1.6
v 0.8 0.2 1.6
v 1 0.1 1.6
v 1 0.2 1.6
v 1.1 0.1 1.6
v 1.1 0.2 1.6
v 1.4 0.1 1.6
v 1.4 0.2 1.6
v 1.5 0.1 1.6
v 1.5 0.2 1.6
v 2 0.1 1.6
v 2 0.2 1.6
v 2.1 0.1 1.6
v 2.1 0.2 1.6
v 2.5 0.1 1.6
v 2.5 0.2 1.6
v -2.5 0 -2.5
v -2.5 0.1 -2.5
v -2.5 0.2 -2.5
v -2.4 0.1 -2.5
v -2.4 0.2 -2.5
v -1.7 0.1 -2.5
v -1.7 0.2 -2.5
v -1.6 0.1 -2.5
v -1.6 0.2 -2.5
v 1.6 0.1 -2.5
v 1.6 0.2 -2.5
v 1.7 0.1 -2.5
v 1.7 0.2 -2.5
v 2.4 0.1 -2.5
v 2.4 0.2 -2.5
v 2.5 0 -2.5
v 2.5 0.1 -2.5
v 2.5 0.2 -2.5
v -2.5 0 2.5
v 2.5 0 2.5
v -0.0999999 0 2.4
v 0.1 0 2.4
v -0.0999999 0 1.6
v 0.1 0 1.6
v -2.4 0 0.0999999
v -2 0 0.0999999
v -1.8 0 0.0999999
v -0.7 0 0.0999999
v -0.4 0 0.0999999
v 0.4 0 0.0999999
v 0.7 0 0.0999999
v 1.5 0 0.0999999
v 1.7 0 0.0999999
v 2.4 0 0.0999999
v -2.4 0 -0.1
v -2 0 -0.1
v -1.8 0 -0.1
v -0.7 0 -0.1
v -0.4 0 -0.1
v -0.0999999 0 -0.1
v 0.1 0 -0.1
v 0.4 0 -0.1
v 0.7 0 -0.1
v 1.5 0 -0.1
v 1.7 0 -0.1
v 2.4 0 -0.1
v -0.0999999 0 -0.2
v 0.1 0 -0.2
v -0.0999999 0 -0.4
v 0.1 0 -0.4
v -0.0999999 0 -0.8
v 0.1 0 -0.8
v -0.0999999 0 -0.9
v 0.1 0 -0.9
v -0.0999999 0 -1.6
v 0.1 0 -1.6
v -0.0999999 0 -1.8
v 0.1 0 -1.8
v -0.0999999 0 -2.4
v 0.1 0 -2.4
v -2.5 0 -2.5
v 2.5 0 -2.5
v -2.2 0.1 1.7
v -2.1 0.1 1.7
v -1.4 0.1 1.7
v -1.3 0.1 1.7
v -0.5 0.1 1.7
v -0.4 0.1 1.7
v 0.3 0.1 1.7
v 0.4 0.1 1.7
v 1 0.1 1.7
v 1.1 0.1 1.7
v 2 0.1 1.7
v 2.1 0.1 1.7
v -2.5 0.1 1.6
v -2.2 0.1 1.6
v -2.1 0.1 1.6
v -1.8 0.1 1.6
v -1.7 0.1 1.6
v -1.4 0.1 1.6
v -1.3 0.1 1.6
v -0.9 0.1 1.6
v -0.8 0.1 1.6
v -0.5 0.1 1.6
v -0.4 0.1 1.6
v -0.0999999 0.1 1.6
v 2.38419e-07 0.1 1.6
v 0.3 0.1 1.6
v 0.4 0.1 1.6
v 0.7 0.1 1.6
v 0.8 0.1 1.6
v 1 0.1 1.6
v 1.1 0.1 1.6
v 1.4 0.1 1.6
v 1.5 0.1 1.6
v 2 0.1 1.6
v 2.1 0.1 1.6
v 2.5 0.1 1.6
v -2.4 0.1 0.0999999
v -2 0.1 0.0999999
v -1.8 0.1 0.0999999
v -0.7 0.1 0.0999999
v -0.4 0.1 0.0999999
v 0.4 0.1 0.0999999
v 0.7 0.1 0.0999999
v 1.5 0.1 0.0999999
v 1.7 0.1 0.0999999
v 2.4 0.1 0.0999999
v -2.4 0.1 -0.1
v -2 0.1 -0.1
v -1.8 0.1 -0.1
v -0.7 0.1 -0.1
v -0.4 0.1 -0.1
v -0.0999999 0.1 -0.1
v 0.1 0.1 -0.1
v 0.4 0.1 -0.1
v 0.7 0.1 -0.1
v 1.5 0.1 -0.1
v 1.7 0.1 -0.1
v 2.4 0.1 -0.1
v -0.0999999 0.1 -0.2
v 0.1 0.1 -0.2
v -0.0999999 0.1 -0.4
v 0.1 0.1 -0.4
v -0.0999999 0.1 -0.8
v 0.1 0.1 -0.8
v -0.0999999 0.1 -0.9
v 0.1 0.1 -0.9
v -2.5 0.1 -1.6
v -2.1 0.1 -1.6
v -0.0999999 0.1 -1.6
v 0.1 0.1 -1.6
v 2.1 0.1 -1.6
v 2.5 0.1 -1.6
v -2.1 0.1 -1.7
v -1.9 0.1 -1.7
v 1.9 0.1 -1.7
v 2.1 0.1 -1.7
v -1.9 0.1 -1.8
v -1.8 0.1 -1.8
v -0.0999999 0.1 -1.8
v 0.1 0.1 -1.8
v 1.8 0.1 -1.8
v 1.9 0.1 -1.8
v -1.8 0.1 -1.9
v -1.7 0.1 -1.9
v 1.7 0.1 -1.9
v 1.8 0.1 -1.9
v -1.7 0.1 -2.1
v -1.6 0.1 -2.1
v 1.6 0.1 -2.1
v 1.7 0.1 -2.1
v -0.0999999 0.1 -2.4
v 0.1 0.1 -2.4
v -1.6 0.1 -2.5
v 1.6 0.1 -2.5
v -2.5 0.2 2.5
v -1.8 0.2 2.5
v -1.7 0.2 2.5
v -0.9 0.2 2.5
v -0.8 0.2 2.5
v -0.0999999 0.2 2.5
v 2.38419e-07 0.2 2.5
v 0.7 0.2 2.5
v 0.8 0.2 2.5
v 1.4 0.2 2.5
v 1.5 0.2 2.5
v 2.5 0.2 2.5
v -2.3 0.2 1.8
v -2 0.2 1.8
v -1.5 0.2 1.8
v -1.2 0.2 1.8
v -0.6 0.2 1.8
v -0.3 0.2 1.8
v 0.2 0.2 1.8
v 0.5 0.2 1.8
v 0.9 0.2 1.8
v 1.2 0.2 1.8
v 1.9 0.2 1.8
v 2.2 0.2 1.8
v -2.5 0.2 1.7
v -2.3 0.2 1.7
v -2.2 0.2 1.7
v -2.1 0.2 1.7
v -2 0.2 1.7
v -1.8 0.2 1.7
v -1.7 0.2 1.7
v -1.5 0.2 1.7
v -1.4 0.2 1.7
v -1.3 0.2 1.7
v -1.2 0.2 1.7
v -0.9 0.2 1.7
v -0.8 0.2 1.7
v -0.6 0.2 1.7
v -0.5 0.2 1.7
v -0.4 0.2 1.7
v -0.3 0.2 1.7
v -0.0999999 0.2 1.7
v 2.38419e-07 0.2 1.7
v 0.2 0.2 1.7
v 0.3 0.2 1.7
v 0.4 0.2 1.7
v 0.5 0.2 1.7
v 0.7 0.2 1.7
v 0.8 0.2 1.7
v 0.9 0.2 1.7
v 1 0.2 1.7
v 1.1 0.2 1.7
v 1.2 0.2 1.7
v 1.4 0.2 1.7
v 1.5 0.2 1.7
v 1.9 0.2 1.7
v 2 0.2 1.7
v 2.1 0.2 1.7
v 2.2 0.2 1.7
v 2.5 0.2 1.7
v -2.5 0.2 1.6
v -2.2 0.2 1.6
v -2.1 0.2 1.6
v -1.8 0.2 1.6
v -1.7 0.2 1.6
v -1.4 0.2 1.6
v -1.3 0.2 1.6
v -0.9 0.2 1.6
v -0.8 0.2 1.6
v -0.5 0.2 1.6
v -0.4 0.2 1.6
v -0.0999999 0.2 1.6
v 2.38419e-07 0.2 1.6
v 0.3 0.2 1.6
v 0.4 0.2 1.6
v 0.7 0.2 1.6
v 0.8 0.2 1.6
v 1 0.2 1.6
v 1.1 0.2 1.6
v 1.4 0.2 1.6
v 1.5 0.2 1.6
v 2 0.2 1.6
v 2.1 0.2 1.6
v 2.5 0.2 1.6
v -2.5 0.2 -1.6
v -2.1 0.2 -1.6
v 2.1 0.2 -1.6
v 2.5 0.2 -1.6
v -2.5 0.2 -1.7
v -2.1 0.2 -1.7
v -1.9 0.2 -1.7
v 1.9 0.2 -1.7
v 2.1 0.2 -1.7
v 2.5 0.2 -1.7
v -2.1 0.2 -1.8
v -1.9 0.2 -1.8
v -1.8 0.2 -1.8
v 1.8 0.2 -1.8
v 1.9 0.2 -1.8
v 2.1 0.2 -1.8
v -2 0.2 -1.9
v -1.9 0.2 -1.9
v -1.8 0.2 -1.9
v -1.7 0.2 -1.9
v 1.7 0.2 -1.9
v 1.8 0.2 -1.9
v 1.9 0.2 -1.9
v 2 0.2 -1.9
v -2.1 0.2 -2
v -2 0.2 -2
v -1.9 0.2 -2
v 1.9 0.2 -2
v 2 0.2 -2
v 2.1 0.2 -2
v -2.2 0.2 -2.1
v -2.1 0.2 -2.1
v -2 0.2 -2.1
v -1.8 0.2 -2.1
v -1.7 0.2 -2.1
v -1.6 0.2 -2.1
v 1.6 0.2 -2.1
v 1.7 0.2 -2.1
v 1.8 0.2 -2.1
v 2 0.2 -2.1
v 2.1 0.2 -2.1
v 2.2 0.2 -2.1
v -2.3 0.2 -2.2
v -2.2 0.2 -2.2
v -2.1 0.2 -2.2
v 2.1 0.2 -2.2
v 2.2 0.2 -2.2
v 2.3 0.2 -2.2
v -2.4 0.2 -2.3
v -2.3 0.2 -2.3
v -2.2 0.2 -2.3
v 2.2 0.2 -2.3
v 2.3 0.2 -2.3
v 2.4 0.2 -2.3
v -2.5 0.2 -2.4
v -2.4 0.2 -2.4
v -2.3 0.2 -2.4
v 2.3 0.2 -2.4
v 2.4 0.2 -2.4
v 2.5 0.2 -2.4
v -2.5 0.2 -2.5
v -2.4 0.2 -2.5
v -1.7 0.2 -2.5
v -1.6 0.2 -2.5
v 1.6 0.2 -2.5
v 1.7 0.2 -2.5
v 2.4 0.2 -2.5
v 2.5 0.2 -2.5

# faces
f 3/5/1 2/5/1 1/5/1
f 4/5/1 2/5/1 3/5/1
f 5/5/1 2/5/1 4/5/1
f 6/5/1 2/5/1 5/5/1
f 7/5/1 2/5/1 6/5/1
f 8/5/1 2/5/1 7/5/1
f 9/5/1 2/5/1 8/5/1
f 10/3/1 4/3/1 3/3/1
f 11/1/1 5/1/1 4/1/1
f 11/3/1 4/3/1 10/3/1
f 12/1/1 5/1/1 11/1/1
f 13/1/1 7/1/1 6/1/1
f 14/3/1 8/3/1 7/3/1
f 14/1/1 7/1/1 13/1/1
f 15/4/1 9/4/1 8/4/1
f 15/3/1 8/3/1 14/3/1
f 16/4/1 9/4/1 15/4/1
f 19/1/1 18/1/1 17/1/1
f 20/1/1 18/1/1 19/1/1
f 23/1/1 22/1/1 21/1/1
f 24/1/1 22/1/1 23/1/1
f 27/1/1 26/1/1 25/1/1
f 28/1/1 26/1/1 27/1/1
f 31/1/1 30/1/1 29/1/1
f 32/1/1 30/1/1 31/1/1
f 35/1/1 34/1/1 33/1/1
f 36/1/1 34/1/1 35/1/1
f 39/1/1 38/1/1 37/1/1
f 40/1/1 38/1/1 39/1/1
f 43/1/1 42/1/1 41/1/1
f 44/1/1 42/1/1 43/1/1
f 47/1/1 46/1/1 45/1/1
f 48/1/1 46/1/1 47/1/1
f 51/1/1 50/1/1 49/1/1
f 52/1/1 50/1/1 51/1/1
f 57/1/1 54/1/1 53/1/1
f 58/1/1 54/1/1 57/1/1
f 59/1/1 56/1/1 55/1/1
f 60/1/1 56/1/1 59/1/1
f 61/1/2 62/1/2 63/1/2
f 63/1/2 62/1/2 64/1/2
f 65/1/2 66/1/2 67/1/2
f 67/1/2 66/1/2 68/1/2
f 69/1/2 70/1/2 71/1/2
f 71/1/2 70/1/2 72/1/2
f 73/1/2 74/1/2 75/1/2
f 75/1/2 74/1/2 76/1/2
f 77/1/2 78/1/2 79/1/2
f 79/1/2 78/1/2 80/1/2
f 81/1/2 82/1/2 83/1/2
f 83/1/2 82/1/2 84/1/2
f 85/1/2 86/1/2 87/1/2
f 87/1/2 86/1/2 88/1/2
f 89/1/2 90/1/2 91/1/2
f 91/1/2 90/1/2 92/1/2
f 93/1/2 94/1/2 95/1/2
f 95/1/2 94/1/2 96/1/2
f 97/1/2 98/1/2 99/1/2
f 99/1/2 98/1/2 100/1/2
f 101/1/2 102/1/2 103/1/2
f 103/1/2 102/1/2 104/1/2
f 105/5/2 106/5/2 107/5/2
f 107/5/2 106/5/2 108/5/2
f 108/5/2 106/5/2 109/5/2
f 109/5/2 106/5/2 110/5/2
f 110/5/2 106/5/2 111/5/2
f 111/5/2 106/5/2 112/5/2
f 112/5/2 106/5/2 113/5/2
f 107/3/2 108/3/2 114/3/2
f 108/1/2 109/1/2 115/1/2
f 114/3/2 108/3/2 115/3/2
f 115/1/2 109/1/2 116/1/2
f 110/1/2 111/1/2 117/1/2
f 111/3/2 112/3/2 118/3/2
f 117/1/2 111/1/2 118/1/2
f 112/4/2 113/4/2 119/4/2
f 118/3/2 112/3/2 119/3/2
f 119/4/2 113/4/2 120/4/2
f 124/5/3 122/5/3 121/5/3
f 124/3/3 123/3/3 122/3/3
f 125/3/3 123/3/3 124/3/3
f 126/5/3 124/5/3 121/5/3
f 126/4/3 125/4/3 124/4/3
f 127/4/3 125/4/3 126/4/3
f 128/5/3 126/5/3 121/5/3
f 128/3/3 127/3/3 126/3/3
f 129/3/3 127/3/3 128/3/3
f 130/5/3 128/5/3 121/5/3
f 130/4/3 129/4/3 128/4/3
f 131/4/3 129/4/3 130/4/3
f 132/5/3 130/5/3 121/5/3
f 132/3/3 131/3/3 130/3/3
f 133/3/3 131/3/3 132/3/3
f 134/5/3 132/5/3 121/5/3
f 134/4/3 133/4/3 132/4/3
f 135/4/3 133/4/3 134/4/3
f 136/5/3 134/5/3 121/5/3
f 136/3/3 135/3/3 134/3/3
f 137/3/3 135/3/3 136/3/3
f 138/5/3 136/5/3 121/5/3
f 138/4/3 137/4/3 136/4/3
f 139/4/3 137/4/3 138/4/3
f 140/5/3 138/5/3 121/5/3
f 140/3/3 139/3/3 138/3/3
f 141/3/3 139/3/3 140/3/3
f 142/5/3 140/5/3 121/5/3
f 142/4/3 141/4/3 140/4/3
f 143/4/3 141/4/3 142/4/3
f 144/5/3 142/5/3 121/5/3
f 145/3/3 143/3/3 142/3/3
f 145/5/3 142/5/3 144/5/3
f 146/3/3 143/3/3 145/3/3
f 149/1/3 148/1/3 147/1/3
f 150/1/3 148/1/3 149/1/3
f 153/1/3 152/1/3 151/1/3
f 154/1/3 152/1/3 153/1/3
f 157/1/3 156/1/3 155/1/3
f 158/1/3 156/1/3 157/1/3
f 161/1/3 160/1/3 159/1/3
f 162/1/3 160/1/3 161/1/3
f 165/1/3 164/1/3 163/1/3
f 166/1/3 164/1/3 165/1/3
f 169/1/3 168/1/3 167/1/3
f 170/1/3 168/1/3 169/1/3
f 173/1/3 172/1/3 171/1/3
f 174/1/3 172/1/3 173/1/3
f 177/1/3 176/1/3 175/1/3
f 178/1/3 176/1/3 177/1/3
f 181/1/3 180/1/3 179/1/3
f 182/1/3 180/1/3 181/1/3
f 185/1/3 184/1/3 183/1/3
f 186/1/3 184/1/3 185/1/3
f 187/1/4 188/1/4 189/1/4
f 189/1/4 188/1/4 190/1/4
f 191/1/4 192/1/4 193/1/4
f 193/1/4 192/1/4 194/1/4
f 195/1/4 196/1/4 197/1/4
f 197/1/4 196/1/4 198/1/4
f 199/1/4 200/1/4 201/1/4
f 201/1/4 200/1/4 202/1/4
f 203/1/4 204/1/4 205/1/4
f 205/1/4 204/1/4 206/1/4
f 207/1/4 208/1/4 209/1/4
f 209/1/4 208/1/4 210/1/4
f 211/1/4 212/1/4 213/1/4
f 213/1/4 212/1/4 214/1/4
f 215/1/4 216/1/4 217/1/4
f 217/1/4 216/1/4 218/1/4
f 217/4/4 218/4/4 219/4/4
f 219/4/4 218/4/4 220/4/4
f 219/1/4 220/1/4 221/1/4
f 221/1/4 220/1/4 222/1/4
f 223/1/4 224/1/4 225/1/4
f 225/1/4 224/1/4 226/1/4
f 225/4/4 226/4/4 227/4/4
f 227/4/4 226/4/4 228/4/4
f 227/1/4 228/1/4 229/1/4
f 229/1/4 228/1/4 230/1/4
f 231/1/4 232/1/4 233/1/4
f 233/1/4 232/1/4 234/1/4
f 233/4/4 234/4/4 235/4/4
f 235/4/4 234/4/4 236/4/4
f 235/1/4 236/1/4 237/1/4
f 237/1/4 236/1/4 238/1/4
f 239/1/4 240/1/4 241/1/4
f 241/1/4 240/1/4 242/1/4
f 241/4/4 242/4/4 243/4/4
f 243/4/4 242/4/4 244/4/4
f 243/1/4 244/1/4 245/1/4
f 245/1/4 244/1/4 246/1/4
f 247/1/4 248/1/4 249/1/4
f 249/1/4 248/1/4 250/1/4
f 249/4/4 250/4/4 251/4/4
f 251/4/4 250/4/4 252/4/4
f 251/1/4 252/1/4 253/1/4
f 253/1/4 252/1/4 254/1/4
f 255/1/4 256/1/4 257/1/4
f 257/1/4 256/1/4 258/1/4
f 259/5/4 260/5/4 262/5/4
f 260/4/4 261/4/4 262/4/4
f 262/4/4 261/4/4 263/4/4
f 259/5/4 262/5/4 264/5/4
f 262/3/4 263/3/4 264/3/4
f 264/3/4 263/3/4 265/3/4
f 259/5/4 264/5/4 266/5/4
f 264/1/4 265/1/4 266/1/4
f 266/1/4 265/1/4 267/1/4
f 259/5/4 266/5/4 268/5/4
f 259/5/4 268/5/4 270/5/4
f 268/1/4 269/1/4 270/1/4
f 270/1/4 269/1/4 271/1/4
f 259/5/4 270/5/4 272/5/4
f 270/3/4 271/3/4 272/3/4
f 272/3/4 271/3/4 273/3/4
f 259/5/4 272/5/4 274/5/4
f 272/4/4 273/4/4 275/4/4
f 274/5/4 272/5/4 275/5/4
f 275/4/4 273/4/4 276/4/4
f 279/5/5 278/5/5 277/5/5
f 280/5/5 278/5/5 279/5/5
f 281/5/5 279/5/5 277/5/5
f 281/2/5 280/2/5 279/2/5
f 282/5/5 278/5/5 280/5/5
f 282/2/5 280/2/5 281/2/5
f 283/5/5 281/5/5 277/5/5
f 283/5/5 282/5/5 281/5/5
f 284/5/5 282/5/5 283/5/5
f 285/5/5 282/5/5 284/5/5
f 286/5/5 282/5/5 285/5/5
f 287/5/5 282/5/5 286/5/5
f 288/5/5 278/5/5 282/5/5
f 288/5/5 282/5/5 287/5/5
f 289/5/5 278/5/5 288/5/5
f 290/5/5 278/5/5 289/5/5
f 291/5/5 278/5/5 290/5/5
f 292/5/5 278/5/5 291/5/5
f 293/5/5 283/5/5 277/5/5
f 293/1/5 284/1/5 283/1/5
f 294/5/5 285/5/5 284/5/5
f 294/1/5 284/1/5 293/1/5
f 295/1/5 286/1/5 285/1/5
f 295/5/5 285/5/5 294/5/5
f 296/5/5 287/5/5 286/5/5
f 296/1/5 286/1/5 295/1/5
f 297/1/5 288/1/5 287/1/5
f 297/5/5 287/5/5 296/5/5
f 298/1/5 288/1/5 297/1/5
f 299/1/5 288/1/5 298/1/5
f 300/5/5 289/5/5 288/5/5
f 300/1/5 288/1/5 299/1/5
f 301/1/5 290/1/5 289/1/5
f 301/5/5 289/5/5 300/5/5
f 302/5/5 291/5/5 290/5/5
f 302/1/5 290/1/5 301/1/5
f 303/1/5 292/1/5 291/1/5
f 303/5/5 291/5/5 302/5/5
f 304/5/5 278/5/5 292/5/5
f 304/1/5 292/1/5 303/1/5
f 305/5/5 295/5/5 294/5/5
f 305/5/5 294/5/5 293/5/5
f 305/5/5 296/5/5 295/5/5
f 305/5/5 298/5/5 297/5/5
f 305/5/5 297/5/5 296/5/5
f 305/1/5 299/1/5 298/1/5
f 306/5/5 303/5/5 302/5/5
f 306/1/5 299/1/5 305/1/5
f 306/5/5 302/5/5 301/5/5
f 306/5/5 300/5/5 299/5/5
f 306/5/5 301/5/5 300/5/5
f 306/5/5 304/5/5 303/5/5
f 307/5/5 305/5/5 293/5/5
f 307/2/5 306/2/5 305/2/5
f 308/5/5 304/5/5 306/5/5
f 308/2/5 306/2/5 307/2/5
f 309/5/5 307/5/5 293/5/5
f 309/5/5 308/5/5 307/5/5
f 310/5/5 304/5/5 308/5/5
f 310/5/5 308/5/5 309/5/5
f 311/5/5 309/5/5 293/5/5
f 311/1/5 310/1/5 309/1/5
f 312/5/5 304/5/5 310/5/5
f 312/1/5 310/1/5 311/1/5
f 313/5/5 311/5/5 293/5/5
f 313/2/5 312/2/5 311/2/5
f 314/5/5 304/5/5 312/5/5
f 314/2/5 312/2/5 313/2/5
f 315/5/5 313/5/5 293/5/5
f 315/5/5 314/5/5 313/5/5
f 316/5/5 304/5/5 314/5/5
f 316/5/5 314/5/5 315/5/5
f 317/5/5 315/5/5 293/5/5
f 317/2/5 316/2/5 315/2/5
f 318/5/5 304/5/5 316/5/5
f 318/2/5 316/2/5 317/2/5
f 319/5/5 317/5/5 293/5/5
f 319/5/5 293/5/5 277/5/5
f 319/5/5 318/5/5 317/5/5
f 320/5/5 278/5/5 304/5/5
f 320/5/5 318/5/5 319/5/5
f 320/5/5 304/5/5 318/5/5
f 321/5/6 322/5/6 334/5/6
f 334/5/6 322/5/6 335/5/6
f 323/5/6 324/5/6 338/5/6
f 338/5/6 324/5/6 339/5/6
f 325/5/6 326/5/6 342/5/6
f 342/5/6 326/5/6 343/5/6
f 327/5/6 328/5/6 346/5/6
f 346/5/6 328/5/6 347/5/6
f 329/5/6 330/5/6 350/5/6
f 350/5/6 330/5/6 351/5/6
f 331/5/6 332/5/6 354/5/6
f 354/5/6 332/5/6 355/5/6
f 352/5/6 353/5/6 357/5/6
f 355/5/6 356/5/6 357/5/6
f 354/5/6 355/5/6 357/5/6
f 353/5/6 354/5/6 357/5/6
f 336/5/6 337/5/6 357/5/6
f 351/5/6 352/5/6 357/5/6
f 350/5/6 351/5/6 357/5/6
f 349/5/6 350/5/6 357/5/6
f 340/5/6 341/5/6 357/5/6
f 347/5/6 348/5/6 357/5/6
f 346/5/6 347/5/6 357/5/6
f 345/5/6 346/5/6 357/5/6
f 344/5/6 345/5/6 357/5/6
f 343/5/6 344/5/6 357/5/6
f 342/5/6 343/5/6 357/5/6
f 341/5/6 342/5/6 357/5/6
f 348/5/6 349/5/6 357/5/6
f 339/5/6 340/5/6 357/5/6
f 338/5/6 339/5/6 357/5/6
f 337/5/6 338/5/6 357/5/6
f 333/5/6 334/5/6 357/5/6
f 335/5/6 336/5/6 357/5/6
f 334/5/6 335/5/6 357/5/6
f 357/5/6 356/5/6 358/5/6
f 358/5/6 356/5/6 359/5/6
f 359/5/6 356/5/6 360/5/6
f 360/5/6 356/5/6 361/5/6
f 361/5/6 356/5/6 362/5/6
f 362/5/6 356/5/6 363/5/6
f 363/5/6 356/5/6 364/5/6
f 364/5/6 356/5/6 365/5/6
f 365/5/6 356/5/6 366/5/6
f 333/5/6 357/5/6 367/5/6
f 357/1/6 358/1/6 367/1/6
f 358/5/6 359/5/6 368/5/6
f 367/1/6 358/1/6 368/1/6
f 359/1/6 360/1/6 369/1/6
f 368/5/6 359/5/6 369/5/6
f 360/5/6 361/5/6 370/5/6
f 369/1/6 360/1/6 370/1/6
f 361/1/6 362/1/6 371/1/6
f 370/5/6 361/5/6 371/5/6
f 371/1/6 362/1/6 372/1/6
f 372/1/6 362/1/6 373/1/6
f 362/5/6 363/5/6 374/5/6
f 373/1/6 362/1/6 374/1/6
f 363/1/6 364/1/6 375/1/6
f 374/5/6 363/5/6 375/5/6
f 364/5/6 365/5/6 376/5/6
f 375/1/6 364/1/6 376/1/6
f 365/1/6 366/1/6 377/1/6
f 376/5/6 365/5/6 377/5/6
f 366/5/6 356/5/6 378/5/6
f 377/1/6 366/1/6 378/1/6
f 367/5/6 368/5/6 379/5/6
f 368/5/6 369/5/6 379/5/6
f 369/5/6 370/5/6 379/5/6
f 371/5/6 372/5/6 379/5/6
f 370/5/6 371/5/6 379/5/6
f 372/1/6 373/1/6 379/1/6
f 376/5/6 377/5/6 380/5/6
f 379/1/6 373/1/6 380/1/6
f 375/5/6 376/5/6 380/5/6
f 373/5/6 374/5/6 380/5/6
f 374/5/6 375/5/6 380/5/6
f 377/5/6 378/5/6 380/5/6
f 367/5/6 379/5/6 381/5/6
f 379/2/6 380/2/6 381/2/6
f 380/5/6 378/5/6 382/5/6
f 381/2/6 380/2/6 382/2/6
f 367/5/6 381/5/6 383/5/6
f 381/5/6 382/5/6 383/5/6
f 382/5/6 378/5/6 384/5/6
f 383/5/6 382/5/6 384/5/6
f 367/5/6 383/5/6 385/5/6
f 383/1/6 384/1/6 385/1/6
f 384/5/6 378/5/6 386/5/6
f 385/1/6 384/1/6 386/1/6
f 367/5/6 385/5/6 387/5/6
f 333/5/6 367/5/6 387/5/6
f 387/5/6 385/5/6 388/5/6
f 385/2/6 386/2/6 389/2/6
f 388/5/6 385/5/6 389/5/6
f 386/5/6 378/5/6 390/5/6
f 389/2/6 386/2/6 390/2/6
f 390/5/6 378/5/6 391/5/6
f 378/5/6 356/5/6 392/5/6
f 391/5/6 378/5/6 392/5/6
f 388/5/6 389/5/6 393/5/6
f 390/5/6 391/5/6 393/5/6
f 389/5/6 390/5/6 393/5/6
f 393/5/6 391/5/6 394/5/6
f 394/5/6 391/5/6 395/5/6
f 395/5/6 391/5/6 396/5/6
f 394/5/6 395/5/6 397/5/6
f 397/5/6 395/5/6 398/5/6
f 398/5/6 395/5/6 399/5/6
f 399/5/6 395/5/6 400/5/6
f 400/5/6 395/5/6 401/5/6
f 401/5/6 395/5/6 402/5/6
f 398/5/6 399/5/6 403/5/6
f 403/5/6 399/5/6 404/5/6
f 400/5/6 401/5/6 405/5/6
f 405/5/6 401/5/6 406/5/6
f 404/5/6 399/5/6 407/5/6
f 407/5/6 399/5/6 408/5/6
f 400/5/6 405/5/6 409/5/6
f 409/5/6 405/5/6 410/5/6
f 399/2/6 400/2/6 411/2/6
f 408/5/6 399/5/6 411/5/6
f 400/5/6 409/5/6 412/5/6
f 411/2/6 400/2/6 412/2/6
f 408/5/6 411/5/6 413/5/6
f 411/5/6 412/5/6 413/5/6
f 412/5/6 409/5/6 414/5/6
f 413/5/6 412/5/6 414/5/6
f 415/3/6 416/3/6 427/3/6
f 427/3/6 416/3/6 428/3/6
f 417/3/6 418/3/6 429/3/6
f 429/3/6 418/3/6 430/3/6
f 419/3/6 420/3/6 431/3/6
f 431/3/6 420/3/6 432/3/6
f 421/3/6 422/3/6 433/3/6
f 433/3/6 422/3/6 434/3/6
f 423/3/6 424/3/6 435/3/6
f 435/3/6 424/3/6 436/3/6
f 425/3/6 426/3/6 437/3/6
f 437/3/6 426/3/6 438/3/6
f 415/3/6 427/3/6 439/3/6
f 427/1/6 428/1/6 440/1/6
f 439/3/6 427/3/6 440/3/6
f 440/1/6 428/1/6 441/1/6
f 441/1/6 428/1/6 442/1/6
f 428/3/6 416/3/6 443/3/6
f 442/1/6 428/1/6 443/1/6
f 416/4/6 417/4/6 444/4/6
f 443/3/6 416/3/6 444/3/6
f 417/3/6 429/3/6 445/3/6
f 444/4/6 417/4/6 445/4/6
f 429/1/6 430/1/6 446/1/6
f 445/3/6 429/3/6 446/3/6
f 446/1/6 430/1/6 447/1/6
f 447/1/6 430/1/6 448/1/6
f 430/3/6 418/3/6 449/3/6
f 448/1/6 430/1/6 449/1/6
f 418/4/6 419/4/6 450/4/6
f 449/3/6 418/3/6 450/3/6
f 419/3/6 431/3/6 451/3/6
f 450/4/6 419/4/6 451/4/6
f 431/1/6 432/1/6 452/1/6
f 451/3/6 431/3/6 452/3/6
f 452/1/6 432/1/6 453/1/6
f 453/1/6 432/1/6 454/1/6
f 432/3/6 420/3/6 455/3/6
f 454/1/6 432/1/6 455/1/6
f 420/4/6 421/4/6 456/4/6
f 455/3/6 420/3/6 456/3/6
f 421/3/6 433/3/6 457/3/6
f 456/4/6 421/4/6 457/4/6
f 433/1/6 434/1/6 458/1/6
f 457/3/6 433/3/6 458/3/6
f 458/1/6 434/1/6 459/1/6
f 459/1/6 434/1/6 460/1/6
f 434/3/6 422/3/6 461/3/6
f 460/1/6 434/1/6 461/1/6
f 422/4/6 423/4/6 462/4/6
f 461/3/6 422/3/6 462/3/6
f 423/3/6 435/3/6 463/3/6
f 462/4/6 423/4/6 463/4/6
f 435/1/6 436/1/6 464/1/6
f 463/3/6 435/3/6 464/3/6
f 464/1/6 436/1/6 465/1/6
f 465/1/6 436/1/6 466/1/6
f 436/3/6 424/3/6 467/3/6
f 466/1/6 436/1/6 467/1/6
f 424/4/6 425/4/6 468/4/6
f 467/3/6 424/3/6 468/3/6
f 425/3/6 437/3/6 469/3/6
f 468/4/6 425/4/6 469/4/6
f 437/1/6 438/1/6 470/1/6
f 469/3/6 437/3/6 470/3/6
f 470/1/6 438/1/6 471/1/6
f 471/1/6 438/1/6 472/1/6
f 438/3/6 426/3/6 473/3/6
f 472/1/6 438/1/6 473/1/6
f 473/3/6 426/3/6 474/3/6
f 439/1/6 440/1/6 475/1/6
f 440/1/6 441/1/6 475/1/6
f 475/1/6 441/1/6 476/1/6
f 442/1/6 443/1/6 477/1/6
f 443/1/6 444/1/6 477/1/6
f 444/4/6 445/4/6 478/4/6
f 477/1/6 444/1/6 478/1/6
f 445/1/6 446/1/6 479/1/6
f 478/4/6 445/4/6 479/4/6
f 446/1/6 447/1/6 479/1/6
f 479/1/6 447/1/6 480/1/6
f 448/1/6 449/1/6 481/1/6
f 449/1/6 450/1/6 481/1/6
f 450/4/6 451/4/6 482/4/6
f 481/1/6 450/1/6 482/1/6
f 451/1/6 452/1/6 483/1/6
f 482/4/6 451/4/6 483/4/6
f 452/1/6 453/1/6 483/1/6
f 483/1/6 453/1/6 484/1/6
f 454/1/6 455/1/6 485/1/6
f 455/1/6 456/1/6 485/1/6
f 456/4/6 457/4/6 486/4/6
f 485/1/6 456/1/6 486/1/6
f 458/1/6 459/1/6 487/1/6
f 486/4/6 457/4/6 487/4/6
f 457/1/6 458/1/6 487/1/6
f 487/1/6 459/1/6 488/1/6
f 460/1/6 461/1/6 489/1/6
f 461/1/6 462/1/6 489/1/6
f 462/4/6 463/4/6 490/4/6
f 489/1/6 462/1/6 490/1/6
f 464/1/6 465/1/6 491/1/6
f 490/4/6 463/4/6 491/4/6
f 463/1/6 464/1/6 491/1/6
f 491/1/6 465/1/6 492/1/6
f 466/1/6 467/1/6 493/1/6
f 467/1/6 468/1/6 493/1/6
f 468/4/6 469/4/6 494/4/6
f 493/1/6 468/1/6 494/1/6
f 470/1/6 471/1/6 495/1/6
f 494/4/6 469/4/6 495/4/6
f 469/1/6 470/1/6 495/1/6
f 495/1/6 471/1/6 496/1/6
f 473/1/6 474/1/6 497/1/6
f 472/1/6 473/1/6 497/1/6
f 497/1/6 474/1/6 498/1/6
f 499/1/6 500/1/6 503/1/6
f 503/1/6 500/1/6 504/1/6
f 501/1/6 502/1/6 507/1/6
f 507/1/6 502/1/6 508/1/6
f 504/1/6 505/1/6 509/1/6
f 503/3/6 504/3/6 509/3/6
f 509/1/6 505/1/6 510/1/6
f 506/1/6 507/1/6 513/1/6
f 507/3/6 508/3/6 514/3/6
f 513/1/6 507/1/6 514/1/6
f 509/3/6 510/3/6 515/3/6
f 510/1/6 511/1/6 516/1/6
f 515/3/6 510/3/6 516/3/6
f 516/1/6 511/1/6 517/1/6
f 512/1/6 513/1/6 520/1/6
f 513/3/6 514/3/6 521/3/6
f 520/1/6 513/1/6 521/1/6
f 521/3/6 514/3/6 522/3/6
f 509/3/6 515/3/6 523/3/6
f 503/3/6 509/3/6 523/3/6
f 515/4/6 516/4/6 524/4/6
f 523/3/6 515/3/6 524/3/6
f 516/3/6 517/3/6 525/3/6
f 524/4/6 516/4/6 525/4/6
f 521/4/6 522/4/6 526/4/6
f 520/3/6 521/3/6 526/3/6
f 522/3/6 514/3/6 527/3/6
f 526/4/6 522/4/6 527/4/6
f 514/3/6 508/3/6 528/3/6
f 527/3/6 514/3/6 528/3/6
f 503/3/6 523/3/6 529/3/6
f 523/4/6 524/4/6 530/4/6
f 529/3/6 523/3/6 530/3/6
f 524/3/6 525/3/6 531/3/6
f 530/4/6 524/4/6 531/4/6
f 517/1/6 518/1/6 532/1/6
f 531/3/6 525/3/6 532/3/6
f 525/3/6 517/3/6 532/3/6
f 532/1/6 518/1/6 533/1/6
f 519/1/6 520/1/6 536/1/6
f 520/3/6 526/3/6 537/3/6
f 526/3/6 527/3/6 537/3/6
f 536/1/6 520/1/6 537/1/6
f 527/4/6 528/4/6 538/4/6
f 537/3/6 527/3/6 538/3/6
f 528/3/6 508/3/6 539/3/6
f 538/4/6 528/4/6 539/4/6
f 539/3/6 508/3/6 540/3/6
f 503/3/6 529/3/6 541/3/6
f 529/4/6 530/4/6 542/4/6
f 541/3/6 529/3/6 542/3/6
f 530/3/6 531/3/6 543/3/6
f 542/4/6 530/4/6 543/4/6
f 531/3/6 532/3/6 543/3/6
f 532/3/6 533/3/6 543/3/6
f 536/3/6 537/3/6 544/3/6
f 537/3/6 538/3/6 544/3/6
f 539/4/6 540/4/6 544/4/6
f 538/3/6 539/3/6 544/3/6
f 540/3/6 508/3/6 545/3/6
f 544/4/6 540/4/6 545/4/6
f 545/3/6 508/3/6 546/3/6
f 503/3/6 541/3/6 547/3/6
f 541/4/6 542/4/6 548/4/6
f 547/3/6 541/3/6 548/3/6
f 542/3/6 543/3/6 549/3/6
f 548/4/6 542/4/6 549/4/6
f 544/3/6 545/3/6 550/3/6
f 545/4/6 546/4/6 550/4/6
f 546/3/6 508/3/6 551/3/6
f 550/4/6 546/4/6 551/4/6
f 551/3/6 508/3/6 552/3/6
f 503/3/6 547/3/6 553/3/6
f 547/4/6 548/4/6 554/4/6
f 553/3/6 547/3/6 554/3/6
f 548/3/6 549/3/6 555/3/6
f 554/4/6 548/4/6 555/4/6
f 550/3/6 551/3/6 556/3/6
f 551/4/6 552/4/6 556/4/6
f 552/3/6 508/3/6 557/3/6
f 556/4/6 552/4/6 557/4/6
f 557/3/6 508/3/6 558/3/6
f 553/4/6 554/4/6 559/4/6
f 554/3/6 555/3/6 560/3/6
f 559/4/6 554/4/6 560/4/6
f 543/3/6 533/3/6 561/3/6
f 560/3/6 555/3/6 561/3/6
f 533/1/6 534/1/6 561/1/6
f 549/3/6 543/3/6 561/3/6
f 555/3/6 549/3/6 561/3/6
f 561/1/6 534/1/6 562/1/6
f 535/1/6 536/1/6 563/1/6
f 550/3/6 556/3/6 564/3/6
f 563/1/6 536/1/6 564/1/6
f 536/3/6 544/3/6 564/3/6
f 544/3/6 550/3/6 564/3/6
f 556/3/6 557/3/6 564/3/6
f 557/4/6 558/4/6 565/4/6
f 564/3/6 557/3/6 565/3/6
f 565/4/6 558/4/6 566/4/6
